<svg xmlns="http://www.w3.org/2000/svg" xmlns:xlink="http://www.w3.org/1999/xlink" viewBox="0 0 1207.77 474.92"><defs><style>.cls-1{fill:url(#New_Gradient_Swatch_2);}.cls-2{fill:url(#New_Gradient_Swatch_2-2);}.cls-3{fill:url(#New_Gradient_Swatch_2-3);}.cls-4{fill:#6772e5;}.cls-4,.cls-5,.cls-6{fill-rule:evenodd;}.cls-5{fill:#5968d6;}.cls-6{fill:#4e60ca;}.cls-7{fill:url(#linear-gradient);}</style><linearGradient id="New_Gradient_Swatch_2" y1="237.46" x2="427.27" y2="237.46" gradientUnits="userSpaceOnUse"><stop offset="0" stop-color="#6772e5"/><stop offset="0.52" stop-color="#5968d6"/><stop offset="1" stop-color="#4e60ca"/></linearGradient><linearGradient id="New_Gradient_Swatch_2-2" x1="40.76" y1="231.39" x2="386.71" y2="231.39" xlink:href="#New_Gradient_Swatch_2"/><linearGradient id="New_Gradient_Swatch_2-3" x1="81.72" y1="221.88" x2="345.91" y2="221.88" xlink:href="#New_Gradient_Swatch_2"/><linearGradient id="linear-gradient" x1="480.52" y1="222.92" x2="1207.77" y2="222.92" gradientUnits="userSpaceOnUse"><stop offset="0" stop-color="#4e60ca"/><stop offset="0.48" stop-color="#5968d6"/><stop offset="1" stop-color="#6772e5"/></linearGradient></defs><g id="Layer_2" data-name="Layer 2"><g id="Layer_1-2" data-name="Layer 1"><path class="cls-1" d="M152.37,0c8.14,6.66,8.32,10.71,1.61,18.85C131.82,45.76,110.47,73.3,90.7,102c-17.91,26-34.69,52.73-48.41,81.21-9.45,19.61-17.92,39.69-21.18,61.43-3.66,24.32-.63,48.24,6.51,71.52,17,55.38,51.85,95.82,104,120.87,32.31,15.5,66.6,20.74,102.28,17.07,37.35-3.84,70.86-17.36,100-40.8,40.62-32.63,64.44-74.95,72.17-126.65,4.65-31.08-1.82-60-14.12-88.12-16.85-38.5-39.18-73.79-63.44-107.95-17.75-25-36.56-49.13-56.08-72.74C266.41,10.51,267.05,6.4,274.66,0h7.24c8.73,7.58,15.2,17.12,22.37,26,19.49,24.22,38.09,49.13,55.37,75,22.54,33.69,42.86,68.55,57.19,106.69,13.53,36,13.13,72.34,3.27,108.94a209.42,209.42,0,0,1-59.65,99.75c-35.58,33.47-77.78,53.08-126.56,57.53-57.2,5.21-108.73-10-153.48-45.86C36.12,392.57,10.25,346.13,1.76,289.84c-5.31-35.16,1.82-68.07,15.89-100C35.13,150.1,58.27,113.74,83.32,78.49c18-25.35,37.27-49.73,57-73.77A55.48,55.48,0,0,1,145.12,0Z"/><path class="cls-2" d="M214.44,433.23c-72.86.62-137.91-45.68-162.67-112-8.19-21.94-12.18-44.55-10.71-67.91,1.1-17.52,6.85-34,13.78-50,15.08-34.85,35.76-66.37,57.88-97,17.39-24.11,36.19-47.12,55.39-69.8a53.4,53.4,0,0,1,3.75-3.92c4.06-3.89,9.12-4.12,12.92-.63,4.53,4.14,5.06,9,1.24,13.61-9.94,12.13-20.16,24-29.92,36.31C126,119.75,97.49,158.69,76.53,202.56c-6.65,13.92-12.46,28.23-14.73,43.62-3,20.35-.58,40.31,5.52,59.86,7.42,23.78,19.75,44.82,37.44,62.26,27.54,27.18,60.62,42.67,99.61,45,33.68,2,64.8-5.92,92.87-24.41,36-23.73,58.06-57.13,67-99.39,6.15-29.07.8-56.21-11.49-82.7-17.91-38.6-42-73.24-67.5-107-13.93-18.41-28.62-36.2-43.66-53.69-4.06-4.73-3.49-10.83,1.11-14.44,4.4-3.46,10-2.52,14,2.08,23.12,26.7,45.25,54.2,65.48,83.16,23,32.85,44.2,66.65,57.43,104.89,9.91,28.67,9,57.43.29,85.89C360.72,370.23,319,410,256.3,428.08a140.21,140.21,0,0,1-20.88,4A136.25,136.25,0,0,1,214.44,433.23Z"/><path class="cls-3" d="M81.76,261.56c-.56-18.81,5.87-35.88,13.67-52.48,15-31.88,35.31-60.36,56.85-88C170.07,98.19,189.15,76.44,209,55.33c4.43-4.71,4.61-4.74,8.94-.17,40.15,42.38,77.28,87.12,106,138.2,10.84,19.26,19.93,39.4,21.65,61.9a105.32,105.32,0,0,1-4.94,40.64c-17.85,55-55.53,87.58-112.82,95-38.39,5-72.81-6.76-101.95-32.65-25.86-23-40-52.07-44-86.26a15.6,15.6,0,0,1-.15-1.8C81.75,267.3,81.76,264.43,81.76,261.56Zm19.44-4.9c.58,33.31,10.28,58.21,29.54,78.92,35.38,38.08,88.48,47.68,134.56,23.68,38-19.81,57.77-52.31,60.82-94.86,1.26-17.45-5.19-33.26-12.53-48.58-11.33-23.64-25.87-45.33-41.45-66.32-17.35-23.39-36-45.69-55.44-67.42-2.45-2.75-4-2-6.13.38q-23.88,26-45.43,54c-19.95,25.84-38.91,52.36-52.66,82.16C106.2,232.19,100.66,246.11,101.2,256.66Z"/><path class="cls-4" d="M268.24,154.23c5.84,15.52-12.56,31.62-21.05,28.47-3.51-1.31-7-2.91-10.09-2.61a17.12,17.12,0,0,0-5.1,1.78l4.78,6.37s10.71,6.34,16.79,10.1a3.51,3.51,0,0,0,2.56.48C275,194.59,280.59,164,268.24,154.23Z"/><path class="cls-4" d="M268.24,154.23c5.84,15.52-12.56,31.62-21.05,28.47-3.51-1.31-7-2.91-10.09-2.61a17.12,17.12,0,0,0-5.1,1.78l4.78,6.37s10.71,6.34,16.79,10.1a3.51,3.51,0,0,0,2.56.48C275,194.59,280.59,164,268.24,154.23Z"/><path class="cls-4" d="M220.08,256.76c19-2,20.37-25.06,47.75-12.68a6.23,6.23,0,0,0,8.35-3.38l6-14c1.35-3.93,1.11-9.92-1.75-12.81-3.39-3.43-11.07-2.56-14.58-4.65-8.2-4.88-29.14-18.22-30.56-19s-4.73-7-6.1-7.7a32.12,32.12,0,0,0-6.76-2.76c-3.44-1-7.13-.22-10.43.78-12.73,3.83-61.49,17.78-41-34.66,0,0-46.58,40.83-2.25,62.06A2.35,2.35,0,0,1,169,212c-11.06,6.77-44.48,29.39-48.83,74.72a89.44,89.44,0,0,0,21.59,38.63c19.17,20.63,44.45,32,71.17,32h0A97.65,97.65,0,0,0,258.37,346a101.9,101.9,0,0,0,28.53-21.41C237.57,311.54,190.22,259.92,220.08,256.76Z"/><path class="cls-5" d="M220.07,256.76c19-2,20.36-25.07,47.74-12.68a6.25,6.25,0,0,0,8.36-3.37l5.95-14c1.35-3.93,1.12-9.92-1.74-12.81-1.85-1.87-5-2.48-8.36-3,14.45,5.59,1.36,25.46-3,25.29-5.12-.19-13.87-11.05-24.46-11.24s-16.69,18.53-30.83,19.85c-21.66,2-23-26.65-36.33-14.13-10.49,9.88-38.71,68.07-.67,119.47a93.49,93.49,0,0,0,36.12,7.26h0A97.65,97.65,0,0,0,258.37,346a102,102,0,0,0,28.53-21.41C237.57,311.55,190.2,259.92,220.07,256.76Z"/><path class="cls-6" d="M215.2,258c-10.6,4.46-24.12,22.27-24.12,52,0,16.17,5.4,32.7,12.19,46.93a93.19,93.19,0,0,0,9.62.5h0A97.65,97.65,0,0,0,258.37,346a101.9,101.9,0,0,0,28.53-21.41C240.8,312.39,196.42,266.5,215.2,258Z"/><path class="cls-7" d="M595.08,192.62q0,21.85-15.74,34.46t-43.8,12.59q-25.85,0-45.72-9.72V198.14a188.18,188.18,0,0,0,27.67,10.27,81.65,81.65,0,0,0,20.7,3q11.28,0,17.29-4.31t6-12.81a14.15,14.15,0,0,0-2.65-8.45,29.69,29.69,0,0,0-7.79-7.12q-5.13-3.42-20.93-10.94-14.8-6.94-22.2-13.36a50.29,50.29,0,0,1-11.82-14.91,42.62,42.62,0,0,1-4.41-19.88q0-21.44,14.52-33.69t40.15-12.26a95.17,95.17,0,0,1,24,3A165.17,165.17,0,0,1,594.3,85l-11,26.62a161.29,161.29,0,0,0-21.37-7.4,68.84,68.84,0,0,0-16.63-2.1q-9.72,0-14.91,4.53a14.92,14.92,0,0,0-5.19,11.81,14.61,14.61,0,0,0,2.1,7.9,23.12,23.12,0,0,0,6.68,6.52q4.59,3.15,21.71,11.32,22.64,10.83,31,21.7T595.08,192.62Z"/><path class="cls-7" d="M708.29,237.46h-93V76h93V104H649.54v35.45h54.67v28H649.54v41.64h58.75Z"/><path class="cls-7" d="M767.17,175.5v62H732.93V76H780q32.91,0,48.7,12t15.8,36.39a42.9,42.9,0,0,1-7.84,25.35q-7.85,11.1-22.2,17.39,36.43,54.45,47.49,70.36h-38l-38.54-62Zm0-27.84h11.05q16.23,0,24-5.41t7.73-17q0-11.49-7.9-16.34T777.56,104H767.17Z"/><path class="cls-7" d="M1004.65,76V180.47q0,17.9-8,31.36a52.11,52.11,0,0,1-23.14,20.66q-15.13,7.19-35.78,7.18-31.15,0-48.38-16T872.11,180V76h34.13v98.85q0,18.67,7.51,27.39T938.6,211q16.78,0,24.35-8.78t7.57-27.56V76Z"/><path class="cls-7" d="M1103.51,237.46l-38.88-126.69h-1q2.08,38.67,2.09,51.58v75.11h-30.59V76h46.61L1120,199.46h.66L1161.16,76h46.61V237.46h-31.92V161q0-5.42.17-12.48t1.49-37.56h-1l-41.64,126.47Z"/><path class="cls-7" d="M537.89,371.09,530.11,343q-1.41-4.45-5.11-20.71h-.49q-3.15,14.67-5,20.82l-8,27.95H497.38L480.52,311h13.05l7.67,29.64q2.61,11,3.7,18.81h.32c.37-2.65.92-5.68,1.66-9.11s1.39-6,1.93-7.69L518,311h14l8.86,31.65q.81,2.65,2,8.15a64.72,64.72,0,0,1,1.44,8.54h.43a169.22,169.22,0,0,1,3.81-18.7L556.38,311h12.83l-17,60.14Z"/><path class="cls-7" d="M574.32,295a7.07,7.07,0,0,1,1.88-5.27,7.29,7.29,0,0,1,5.36-1.85,6.49,6.49,0,0,1,7.12,7.12,7,7,0,0,1-1.88,5.14,7.09,7.09,0,0,1-5.24,1.87,7.26,7.26,0,0,1-5.36-1.87A7,7,0,0,1,574.32,295Zm13.54,76.07H575.09V311h12.77Z"/><path class="cls-7" d="M624.08,361.85a31,31,0,0,0,9.35-1.47V370a25.63,25.63,0,0,1-5.46,1.55,37.37,37.37,0,0,1-6.93.63q-18.16,0-18.16-19.14V320.63h-8.21V315l8.8-4.68,4.35-12.72h7.89V311h17.13v9.68H615.71v32.19c0,3.08.77,5.36,2.31,6.82A8.42,8.42,0,0,0,624.08,361.85Z"/><path class="cls-7" d="M693.9,371.09H681.07v-37c0-4.63-.93-8.1-2.8-10.38s-4.83-3.43-8.89-3.43q-8,0-11.83,4.82t-3.78,16.12v29.85H641V286.48h12.77V308a99.15,99.15,0,0,1-.65,11h.82a17.7,17.7,0,0,1,7.26-6.74,23.31,23.31,0,0,1,10.84-2.4q21.87,0,21.86,22Z"/><path class="cls-7" d="M758,372.18q-14,0-21.94-8.19t-7.92-22.53q0-14.74,7.34-23.17t20.18-8.43q11.91,0,18.81,7.24t6.91,19.9v6.9H741.27q.27,8.76,4.73,13.46t12.56,4.7a46.48,46.48,0,0,0,9.93-1,52.1,52.1,0,0,0,9.87-3.35V368.1a38.89,38.89,0,0,1-9.47,3.15A57.62,57.62,0,0,1,758,372.18Zm-2.34-52.64a12.84,12.84,0,0,0-9.76,3.86q-3.68,3.87-4.38,11.26h27.3q-.12-7.46-3.59-11.28T755.63,319.54Z"/><path class="cls-7" d="M831.59,371.09H786v-7.88l30.4-42.47H787.82V311h42.9v8.92L801,361.3h30.61Z"/><path class="cls-7" d="M906.2,330.58q0,19.68-10.93,30.1t-31.48,10.41H841.55v-79.5h24.58q19,0,29.52,10.23T906.2,330.58Zm-13.7.44q0-28.56-26.7-28.55H854.54v57.69h9.25Q892.5,360.16,892.5,331Z"/><path class="cls-7" d="M943.72,372.18q-14,0-21.94-8.19t-7.91-22.53q0-14.74,7.34-23.17t20.18-8.43q11.9,0,18.81,7.24t6.9,19.9v6.9H927q.27,8.76,4.73,13.46t12.56,4.7a46.54,46.54,0,0,0,9.93-1,51.79,51.79,0,0,0,9.86-3.35V368.1a38.68,38.68,0,0,1-9.46,3.15A57.65,57.65,0,0,1,943.72,372.18Zm-2.33-52.64a12.84,12.84,0,0,0-9.76,3.86q-3.68,3.87-4.38,11.26h27.29q-.1-7.46-3.58-11.28C948.64,320.82,945.44,319.54,941.39,319.54Z"/><path class="cls-7" d="M991.41,371.09H978.53v-79.5h44.86v11h-32v24.85h30v11h-30Z"/><path class="cls-7" d="M1031.22,295a7.07,7.07,0,0,1,1.88-5.27,7.26,7.26,0,0,1,5.35-1.85,6.49,6.49,0,0,1,7.13,7.12,7,7,0,0,1-1.88,5.14,7.1,7.1,0,0,1-5.25,1.87,7.23,7.23,0,0,1-5.35-1.87A7,7,0,0,1,1031.22,295Zm13.54,76.07H1032V311h12.78Z"/></g></g></svg>